# xmcd
#
# Track frame offsets: 
#        150
#        12626
#        25796
#        44053
#        57353
#        71338
#        82677
#        92732
#        106368
#        118680
#        132236
#        149259
#        160486
#        175660
#
# Disc length: 2524 seconds
#
# Revision: 0
# Processed by: cddbd v1.5.2PL0 Copyright (c) Steve Scherf et al.
# Submitted via: ExactAudioCopy v1.0b3
#
DISCID=bb09da0e
DTITLE=Shane Nicholson - Sleeping Dogs - The Rarities
DYEAR=2011
DGENRE=Country
TTITLE0=Skin and Bones
TTITLE1=A Little Love
TTITLE2=Cold Trail
TTITLE3=You Want Everything
TTITLE4=Watch Her Go
TTITLE5=You Belong In A Song
TTITLE6=Hardest Lesson To Learn
TTITLE7=Avenida De Las Americas
TTITLE8=Exit Wounds
TTITLE9=Shelter
TTITLE10=Food For Songs
TTITLE11=I Don't Think I'm Ever Gonna Figure It Out
TTITLE12=Wither On The Vine
TTITLE13=After The Goldrush
EXTD=
EXTT0=
EXTT1=
EXTT2=
EXTT3=
EXTT4=
EXTT5=
EXTT6=
EXTT7=
EXTT8=
EXTT9=
EXTT10=
EXTT11=
EXTT12=
EXTT13=
PLAYORDER=
